# xmcd CD database file
#
# Track frame offsets:
#	150
#	25878
#	57819
#	78022
#	105407
#	128430
#	131505
#	152912
#	180696
#	201033
#	205246
#	232504
#	263599
#
# Disc length: 3627 seconds
#
# Revision: 0
# Processed by: cddbd v1.5.2PL0 Copyright (c) Steve Scherf et al.
# Submitted via: CDex 1.70beta2
#
DISCID=950e290d
DTITLE=Anders Hagberg Quartet - Stories of Now
DYEAR=2011
DGENRE=Jazz
TTITLE0=Stories of Now
TTITLE1=Biera Maret
TTITLE2=Autumn
TTITLE3=Dancing Stone
TTITLE4=Hommage
TTITLE5=Gentle Giant
TTITLE6=Om olyckan vill
TTITLE7=Ali Khan
TTITLE8=Gtonga
TTITLE9=Within
TTITLE10=Faller regn
TTITLE11=Soon
TTITLE12=Data Track
EXTD=YEAR: 2011
EXTT0=
EXTT1=
EXTT2=
EXTT3=
EXTT4=
EXTT5=
EXTT6=
EXTT7=
EXTT8=
EXTT9=
EXTT10=
EXTT11=
EXTT12=
PLAYORDER=
